HIERARCHY
ROOT Hips
{
	OFFSET 0.000000 0.000000 0.000000
	CHANNELS 6 Xposition Yposition Zposition Zrotation Yrotation Xrotation 
	JOINT LHipJoint
	{
		OFFSET 0.000000 0.000000 0.000000
		CHANNELS 3 Zrotation Yrotation Xrotation
		JOINT LeftUpLeg
		{
			OFFSET 1.363060 -1.794630 0.839290
			CHANNELS 3 Zrotation Yrotation Xrotation
			JOINT LeftLeg
			{
				OFFSET 2.448110 -6.726130 0.000000
				CHANNELS 3 Zrotation Yrotation Xrotation
				JOINT LeftFoot
				{
					OFFSET 2.562200 -7.039590 0.000000
					CHANNELS 3 Zrotation Yrotation Xrotation
					JOINT LeftToeBase
					{
						OFFSET 0.157640 -0.433110 2.322550
						CHANNELS 3 Zrotation Yrotation Xrotation
						End Site
						{
							OFFSET 0.000000 0.000000 0.000000
						}
					}
				}
			}
		}
	}
	JOINT RHipJoint
	{
		OFFSET 0.000000 0.000000 0.000000
		CHANNELS 3 Zrotation Yrotation Xrotation
		JOINT RightUpLeg
		{
			OFFSET -1.305520 -1.794630 0.839290
			CHANNELS 3 Zrotation Yrotation Xrotation
			JOINT RightLeg
			{
				OFFSET -2.542530 -6.985550 0.000000
				CHANNELS 3 Zrotation Yrotation Xrotation
				JOINT RightFoot
				{
					OFFSET -2.568260 -7.056230 0.000000
					CHANNELS 3 Zrotation Yrotation Xrotation
					JOINT RightToeBase
					{
						OFFSET -0.164730 -0.452590 2.363150
						CHANNELS 3 Zrotation Yrotation Xrotation
						End Site
						{
							OFFSET 0.000000 0.000000 0.000000
						}
					}
				}
			}
		}
	}
	JOINT LowerBack
	{
		OFFSET 0.000000 0.000000 0.000000
		CHANNELS 3 Zrotation Yrotation Xrotation
		JOINT Spine
		{
			OFFSET 0.028270 2.035590 -0.193380
			CHANNELS 3 Zrotation Yrotation Xrotation
			JOINT Spine1
			{
				OFFSET 0.056720 2.048850 -0.042750
				CHANNELS 3 Zrotation Yrotation Xrotation
				JOINT Neck
				{
					OFFSET 0.000000 0.000000 0.000000
					CHANNELS 3 Zrotation Yrotation Xrotation
					JOINT Neck1
					{
						OFFSET -0.054170 1.746240 0.172020
						CHANNELS 3 Zrotation Yrotation Xrotation
						JOINT Head
						{
							OFFSET 0.104070 1.761360 -0.123970
							CHANNELS 3 Zrotation Yrotation Xrotation
							End Site
							{
								OFFSET 0.000000 0.000000 0.000000
							}
						}
					}
				}
				JOINT LeftShoulder
				{
					OFFSET 0.000000 0.000000 0.000000
					CHANNELS 3 Zrotation Yrotation Xrotation
					JOINT LeftArm
					{
						OFFSET 3.362410 1.200890 -0.311210
						CHANNELS 3 Zrotation Yrotation Xrotation
						JOINT LeftForeArm
						{
							OFFSET 4.983000 -0.000000 -0.000000
							CHANNELS 3 Zrotation Yrotation Xrotation
							JOINT LeftHand
							{
								OFFSET 3.483560 -0.000000 -0.000000
								CHANNELS 3 Zrotation Yrotation Xrotation
								JOINT LeftFingerBase
								{
									OFFSET 0.000000 0.000000 0.000000
									CHANNELS 3 Zrotation Yrotation Xrotation
									JOINT LeftHandIndex1
									{
										OFFSET 0.715260 -0.000000 -0.000000
										CHANNELS 3 Zrotation Yrotation Xrotation
										End Site
										{
											OFFSET 0.000000 0.000000 0.000000
										}
									}
								}
								JOINT LThumb
								{
									OFFSET 0.000000 0.000000 0.000000
									CHANNELS 3 Zrotation Yrotation Xrotation
									End Site
									{
										OFFSET 0.000000 0.000000 0.000000
									}
								}
							}
						}
					}
				}
				JOINT RightShoulder
				{
					OFFSET 0.000000 0.000000 0.000000
					CHANNELS 3 Zrotation Yrotation Xrotation
					JOINT RightArm
					{
						OFFSET -3.136600 1.374050 -0.404650
						CHANNELS 3 Zrotation Yrotation Xrotation
						JOINT RightForeArm
						{
							OFFSET -5.241900 -0.000000 -0.000000
							CHANNELS 3 Zrotation Yrotation Xrotation
							JOINT RightHand
							{
								OFFSET -3.444170 -0.000000 -0.000000
								CHANNELS 3 Zrotation Yrotation Xrotation
								JOINT RightFingerBase
								{
									OFFSET 0.000000 0.000000 0.000000
									CHANNELS 3 Zrotation Yrotation Xrotation
									JOINT RightHandIndex1
									{
										OFFSET -0.622530 -0.000000 -0.000000
										CHANNELS 3 Zrotation Yrotation Xrotation
										End Site
										{
											OFFSET 0.000000 0.000000 0.000000
										}
									}
								}
								JOINT RThumb
								{
									OFFSET 0.000000 0.000000 0.000000
									CHANNELS 3 Zrotation Yrotation Xrotation
									End Site
									{
										OFFSET 0.000000 0.000000 0.000000
									}
								}
							}
						}
					}
				}
			}
		}
	}
}
MOTION
Frames: 4
Frame Time: 0.008333
-0.701155 17.078672 0.930026 17.014183 76.276918 28.945746 -9.499215 0.720136 4.752984 -8.114197 -7.319592 -31.911788 -2.649209 -0.165649 14.961619 -0.461006 -4.143961 0.923094 -0.288600 0.000000 -37.476100 10.470690 -4.215156 0.500127 11.053097 -4.805414 -8.508645 0.592399 -3.083280 40.020085 0.812138 14.296490 12.727204 4.599400 0.000000 -51.614800 -2.318848 2.887961 -6.606690 -1.632955 2.769358 -4.125179 -6.771489 2.800056 0.733987 9.910441 -9.744666 -9.855086 -2.771389 -0.199102 -0.561162 0.000000 0.000000 0.000000 0.346568 27.347892 0.096843 -61.874209 24.176421 -5.447960 -179.844050 -88.238811 179.974860 19.347450 -3.073226 -0.556290 -0.352835 0.152728 0.000000 0.000000 0.000000 0.000000 0.000000 0.000000 0.000000 11.096448 1.210313 -2.411708 75.219650 12.898904 15.324893 0.610100 81.985621 -0.029849 -5.863858 10.420872 -0.570687 0.105256 -0.547718 0.000000 0.000000 0.000000 0.000000 0.000000 0.000000 0.000000 
-0.494781 17.065333 1.004762 19.213284 75.631951 30.811765 -9.427155 0.882233 4.608692 -9.185456 -6.704294 -31.345530 -2.712889 -0.083552 16.079565 -0.447959 -4.088696 0.699297 -0.269700 -0.000000 -36.846700 10.842172 -4.142713 0.369439 9.917782 -5.893797 -10.307979 0.140988 -3.254084 43.774283 0.484608 12.388951 14.703308 4.500400 0.000000 -56.791101 -2.877792 2.668155 -6.436207 -1.722241 2.611686 -4.087451 -6.739245 2.641394 0.740745 9.948025 -9.855769 -9.905791 -2.816231 -0.201443 -0.578737 0.000000 0.000000 0.000000 0.332888 27.266292 0.043180 -61.938586 23.554131 -5.299168 -179.826772 -87.693642 179.972549 19.443663 -3.125667 -0.569645 -0.356642 0.160808 0.000000 0.000000 0.000000 0.000000 0.000000 0.000000 0.000000 11.447510 1.011516 -2.367764 75.671338 12.462450 15.528312 0.650650 81.092290 -0.028011 -5.768945 10.502231 -0.565510 0.106129 -0.540857 0.000000 0.000000 0.000000 0.000000 0.000000 0.000000 0.000000 
-0.292828 17.051298 1.081116 21.175556 74.936658 32.473467 -9.329653 1.044593 4.459477 -10.280787 -6.028038 -30.753585 -2.789409 -0.026667 17.039864 -0.423259 -3.946833 0.270446 -0.231000 -0.000000 -36.148699 11.196607 -4.016836 0.256136 8.838554 -6.835833 -12.197802 -0.262392 -3.399422 47.489856 0.124492 9.850539 16.127614 3.946500 -0.000000 -59.723000 -3.429434 2.434491 -6.268503 -1.805864 2.438585 -4.049748 -6.698106 2.466684 0.742063 9.962815 -9.947927 -9.957520 -2.865643 -0.204088 -0.597121 0.000000 0.000000 0.000000 0.281100 27.137035 -0.008714 -62.040784 22.830583 -5.118791 -179.811350 -87.188266 179.970079 19.555739 -3.166876 -0.581696 -0.360580 0.169015 0.000000 0.000000 0.000000 0.000000 0.000000 0.000000 0.000000 11.792389 0.815081 -2.317611 76.133695 12.026800 15.708476 0.694230 80.114118 -0.026182 -5.671463 10.559099 -0.558644 0.106776 -0.532981 0.000000 0.000000 0.000000 0.000000 0.000000 0.000000 0.000000 
-0.094975 17.037198 1.158203 22.818269 74.193262 33.855926 -9.214187 1.204141 4.312618 -11.352418 -5.328385 -30.135277 -2.874538 0.006447 17.836497 -0.386061 -3.726674 -0.363032 -0.178300 0.000000 -35.410400 11.521923 -3.846053 0.164527 7.848602 -7.601654 -14.148034 -0.610917 -3.531018 51.093098 -0.251032 6.842289 16.871991 2.997600 -0.000000 -60.410400 -3.946311 2.194296 -6.112444 -1.879116 2.254789 -4.013467 -6.649357 2.280698 0.739051 9.955184 -10.027131 -10.008963 -2.919600 -0.207095 -0.615749 0.000000 0.000000 0.000000 0.186164 26.959097 -0.061130 -62.180249 22.013907 -4.909169 -179.797527 -86.724498 179.967464 19.683333 -3.197008 -0.592442 -0.364699 0.177294 0.000000 0.000000 0.000000 0.000000 0.000000 0.000000 0.000000 12.131657 0.616254 -2.260699 76.590411 11.592529 15.868991 0.740315 79.056105 -0.024430 -5.583774 10.589942 -0.551286 0.107432 -0.524031 0.000000 0.000000 0.000000 0.000000 0.000000 0.000000 0.000000 
